<?xml version="1.0" encoding="UTF-8"?>
<svg id="Layer_1" data-name="Layer 1" xmlns="http://www.w3.org/2000/svg" viewBox="0 0 433.54 425.76">
  <path d="M432.04,27.44c-.32,1.04-8.09,1.04-9.73,1.25-15.56,2.06-29.05,7.77-36.98,21.96l-139.06,326.94-48.9.64-21.55-42.37-24.46,65.2.72.73,169.35.02c44.37-2.59,68.19-50.62,85.39-85.43h26.72l-51.7,109.38H12.99l9.06-23.91c16.18-.8,32.54-.63,48.39-4.31,6.94-1.61,18.39-5.3,22.69-11.27,2.34-3.25,2.49-6.75,3.76-10.22,14.24-38.87,29.47-77.39,43.42-116.37-25.79-55.25-51.31-110.65-77.44-165.74-5.29-11.16-10.57-23.91-16.32-34.62-8.27-15.41-22.33-19.18-38.8-20.63-2.5-.22-5.78.72-7.74-.75V10.21h129.11l.75.75v26.97c-1.66,1.45-4.54.53-6.73.76-3.13.32-9.46,1.61-11.7,3.79-5.52,5.38,1.57,12.07,4.03,16.84,15.14,29.37,28.33,61.79,42.44,91.92,4.12,8.8,8.24,17.64,12.67,26.29l27.45-76.43c6.06-16.41-10.34-19.57-22.71-19.46l8.74-23.97h133.61l-9.06,23.91c-14.1.47-36.21,1.21-43.8,15.39l-58.01,157.8c9,22.58,20.11,44.58,29.84,66.97l1.11.65c-.01-.64.13-1.25.4-1.84,40.53-88.33,73.46-180.43,114.74-268.36,11.89-22.03-18.38-24.12-32.73-23.98V3.47l.75-.75h110.38l.75.75v23.97Z"/>
</svg>